# xmcd
#
# Track frame offsets: 
#        182
#        9505
#        26667
#        43817
#        66632
#        83752
#        99945
#        120365
#        140465
#        145175
#
# Disc length: 2238 seconds
#
# Revision: 13
# Processed by: cddbd v1.5.2PL0 Copyright (c) Steve Scherf et al.
# Submitted via: ExactAudioCopyFreeDBPlugin 1.0
#
DISCID=8208bc0a
DTITLE=Patricia Kaas - Carnets de scène (live) - CD 1
DYEAR=1991
DGENRE=Chanson
TTITLE0=Générique (Thème Montmajour) (live)
TTITLE1=Les mannequins d'osier (live)
TTITLE2=Vénus des abribus (live)
TTITLE3=Mon mec à moi (live)
TTITLE4=Tropic blues bar (live)
TTITLE5=Coeurs brisés (live)
TTITLE6=Elle voulait jouer cabaret (live)
TTITLE7=L'heure du jazz (live)
TTITLE8=Lili Marlene (live)
TTITLE9=D'Allemagne (live)
EXTD=YEAR: 1991
EXTT0=
EXTT1=
EXTT2=
EXTT3=
EXTT4=
EXTT5=
EXTT6=
EXTT7=
EXTT8=
EXTT9=
PLAYORDER=
